HIERARCHY
ROOT Hips
{
	OFFSET -0.001795 -0.223333 0.028219
	CHANNELS 6 Xposition Yposition Zposition Zrotation Yrotation Xrotation 
	JOINT LeftUpLeg
	{
		OFFSET 0.069520 -0.091406 -0.006815
		CHANNELS 3 Zrotation Yrotation Xrotation
		JOINT LeftLeg
		{
			OFFSET 0.034277 -0.375199 -0.004496
			CHANNELS 3 Zrotation Yrotation Xrotation
			JOINT LeftFoot
			{
				OFFSET -0.013596 -0.397961 -0.043693
				CHANNELS 3 Zrotation Yrotation Xrotation
				JOINT LeftToe
				{
					OFFSET 0.026358 -0.055791 0.119288
					CHANNELS 3 Zrotation Yrotation Xrotation
					End Site
					{
						OFFSET 0.000000 0.000000 0.000000
					}
				}
			}
		}
	}
	JOINT RightUpLeg
	{
		OFFSET -0.067670 -0.090522 -0.004320
		CHANNELS 3 Zrotation Yrotation Xrotation
		JOINT RightLeg
		{
			OFFSET -0.038290 -0.382569 -0.008850
			CHANNELS 3 Zrotation Yrotation Xrotation
			JOINT RightFoot
			{
				OFFSET 0.015774 -0.398415 -0.042312
				CHANNELS 3 Zrotation Yrotation Xrotation
				JOINT RightToe
				{
					OFFSET -0.025372 -0.048144 0.123348
					CHANNELS 3 Zrotation Yrotation Xrotation
					End Site
					{
						OFFSET 0.000000 0.000000 0.000000
					}
				}
			}
		}
	}
	JOINT Spine
	{
		OFFSET -0.002533 0.108963 -0.026696
		CHANNELS 3 Zrotation Yrotation Xrotation
		JOINT Spine1
		{
			OFFSET 0.005487 0.135180 0.001092
			CHANNELS 3 Zrotation Yrotation Xrotation
			JOINT Spine2
			{
				OFFSET 0.001457 0.052922 0.025425
				CHANNELS 3 Zrotation Yrotation Xrotation
				JOINT Neck
				{
					OFFSET -0.002778 0.213870 -0.042857
					CHANNELS 3 Zrotation Yrotation Xrotation
					JOINT Head
					{
						OFFSET 0.005152 0.064970 0.051349
						CHANNELS 3 Zrotation Yrotation Xrotation
						End Site
						{
							OFFSET 0.000000 0.000000 0.000000
						}
					}
				}
				JOINT LeftShoulder
				{
					OFFSET 0.078845 0.121749 -0.034090
					CHANNELS 3 Zrotation Yrotation Xrotation
					JOINT LeftArm
					{
						OFFSET 0.090977 0.030469 -0.008868
						CHANNELS 3 Zrotation Yrotation Xrotation
						JOINT LeftForeArm
						{
							OFFSET 0.259612 -0.012772 -0.027456
							CHANNELS 3 Zrotation Yrotation Xrotation
							JOINT LeftHand
							{
								OFFSET 0.249234 0.008986 -0.001171
								CHANNELS 3 Zrotation Yrotation Xrotation
								End Site
								{
									OFFSET 0.000000 0.000000 0.000000
								}
							}
						}
					}
				}
				JOINT RightShoulder
				{
					OFFSET -0.081759 0.118833 -0.038615
					CHANNELS 3 Zrotation Yrotation Xrotation
					JOINT RightArm
					{
						OFFSET -0.096012 0.032551 -0.009143
						CHANNELS 3 Zrotation Yrotation Xrotation
						JOINT RightForeArm
						{
							OFFSET -0.253742 -0.013329 -0.021401
							CHANNELS 3 Zrotation Yrotation Xrotation
							JOINT RightHand
							{
								OFFSET -0.255298 0.007772 -0.005559
								CHANNELS 3 Zrotation Yrotation Xrotation
								End Site
								{
									OFFSET 0.000000 0.000000 0.000000
								}
							}
						}
					}
				}
			}
		}
	}
}
MOTION
Frames: 7
Frame Time: 0.050000
0.000000 0.957023 0.000000 2.240772 -5.140944 3.144266 1.119707 -0.076175 -0.728029 -1.692120 0.295202 -4.737636 0.165950 4.645331 13.439234 0.000000 0.000000 0.000000 -3.854245 0.081511 1.368951 2.565142 -0.287460 -3.070609 -4.626082 -13.925680 10.992876 0.000000 0.000000 0.000000 7.657446 -0.669861 5.179244 -6.753416 2.121279 -25.265078 0.407929 12.847634 25.478554 12.156404 -3.309083 -28.965448 0.000000 0.000000 0.000000 2.488055 -6.509764 2.313421 -18.488232 -16.888307 -1.078953 104.477131 -65.005990 -79.868312 0.000000 0.000000 0.000000 0.647268 -0.391929 -0.137301 5.695661 25.300800 -1.153208 -22.292755 6.684867 -0.230166 0.000000 0.000000 0.000000 
-0.000181 0.956590 -0.000341 1.628528 -4.366368 3.171034 1.596506 -0.004871 0.197202 -1.585760 0.316280 -6.121614 -1.408783 2.139945 13.245439 0.000000 0.000000 0.000000 -2.755360 -0.017150 1.801294 1.410313 -0.227119 -3.530838 -4.405041 -13.521002 11.309909 0.000000 0.000000 0.000000 8.889360 -0.803728 5.666378 -7.673772 2.331690 -25.603430 0.393576 12.360944 25.118596 11.447210 -3.033789 -28.248801 0.000000 0.000000 0.000000 2.065467 -7.418392 2.560874 -15.573536 -19.302413 -0.921870 98.468182 -62.391200 -71.303863 0.000000 0.000000 0.000000 2.319036 -1.053514 -0.289664 5.408664 26.189002 -1.196194 -22.289280 4.574202 0.114139 0.000000 0.000000 0.000000 
-0.000782 0.957063 -0.001285 2.057376 -5.674719 2.839530 0.975754 0.061773 0.830933 -0.838354 0.234178 -4.899053 -0.521296 3.281834 12.808552 0.000000 0.000000 0.000000 -3.843469 0.090293 1.263570 2.222092 -0.269043 -3.452540 -3.198810 -11.135999 10.099369 0.000000 0.000000 0.000000 8.473398 -0.792188 5.977692 -6.418421 2.006627 -26.955470 -0.094479 14.630030 27.356600 13.501788 -3.542990 -30.793550 0.000000 0.000000 0.000000 4.389184 -7.643072 2.823628 -14.797906 -24.579295 -0.878597 87.933923 -54.859782 -55.229335 0.000000 0.000000 0.000000 3.928949 -0.402761 0.137540 7.509448 27.330923 -1.095629 -29.692043 4.069501 0.410811 0.000000 0.000000 0.000000 
-0.001761 0.956935 -0.002653 2.292339 -3.356093 2.986521 1.392134 0.028552 0.588270 -1.554538 0.284218 -4.995190 -1.475926 2.031667 12.853297 0.000000 0.000000 0.000000 -3.504168 0.050184 1.283276 2.159775 -0.273394 -3.208452 -4.141890 -12.834722 10.675214 0.000000 0.000000 0.000000 8.126065 -0.681055 4.975546 -6.528628 2.071435 -26.001019 -0.634660 11.759810 27.481953 12.805878 -3.429570 -30.734025 0.000000 0.000000 0.000000 4.799558 -9.098343 3.222369 -12.193803 -27.742588 -1.045745 82.637008 -46.722534 -43.104825 0.000000 0.000000 0.000000 5.790003 0.852949 0.753783 7.936522 30.103288 -1.083764 -33.473105 2.517883 0.778724 0.000000 0.000000 0.000000 
-0.003070 0.957038 -0.004491 2.395518 -3.116016 2.895153 1.034296 -0.044757 -0.345770 -1.218530 0.221998 -3.501803 -1.249207 1.956303 11.428241 0.000000 0.000000 0.000000 -3.665491 0.049727 1.369452 2.204185 -0.275428 -3.081243 -3.842190 -12.229648 10.542393 0.000000 0.000000 0.000000 7.222668 -0.648770 5.187890 -5.567602 1.853472 -26.218605 -0.428784 11.255845 27.060501 11.802368 -3.179633 -29.303365 0.000000 0.000000 0.000000 5.747401 -11.511617 3.909222 -8.963474 -31.837796 -1.492611 77.094911 -36.274706 -30.812618 0.000000 0.000000 0.000000 6.867130 1.664617 1.169589 11.770566 31.986625 -0.517552 -40.724972 7.971876 -0.718332 0.000000 0.000000 0.000000 
-0.004351 0.957029 -0.006595 2.383308 -2.351379 3.357634 0.808280 -0.111923 -1.132042 -0.856445 0.181582 -3.189452 -1.560559 1.623536 11.708136 0.000000 0.000000 0.000000 -3.432866 0.066950 0.885318 2.164171 -0.280557 -3.291502 -4.282398 -12.940348 10.261135 0.000000 0.000000 0.000000 6.539371 -0.585546 4.813279 -5.267086 1.784750 -26.574189 -0.257445 9.718561 27.057870 11.204829 -3.033178 -29.209088 0.000000 0.000000 0.000000 7.709727 -13.388216 4.351190 -6.034469 -34.719078 -2.075493 73.942907 -26.440193 -21.488941 0.000000 0.000000 0.000000 8.117003 3.420514 1.963584 16.476056 35.663790 0.551125 -47.447160 11.931132 -2.347505 0.000000 0.000000 0.000000 
-0.005242 0.957113 -0.008811 2.249745 -2.157864 3.196255 0.803786 -0.181453 -1.948049 -0.627219 0.124333 -1.896604 -1.601674 1.413526 11.247014 0.000000 0.000000 0.000000 -3.247634 0.046213 1.022338 2.124411 -0.273939 -3.035860 -4.586752 -13.364115 9.472366 0.000000 0.000000 0.000000 6.072577 -0.574763 5.024172 -4.249048 1.571227 -26.028714 -0.127940 9.683404 26.458834 10.287344 -2.685167 -28.015042 0.000000 0.000000 0.000000 8.464786 -15.233529 4.797593 -0.416738 -37.107898 -3.416822 72.848331 -20.166098 -16.702661 0.000000 0.000000 0.000000 10.261387 4.896999 2.851130 21.481400 37.584124 1.820047 -55.458690 19.669414 -6.284341 0.000000 0.000000 0.000000 
